<svg xmlns="http://www.w3.org/2000/svg" version="1.1" xmlns:xlink="http://www.w3.org/1999/xlink" xmlns:svgjs="http://svgjs.dev/svgjs" width="2000" height="1247" viewBox="0 0 2000 1247"><g transform="matrix(1,0,0,1,-1.2121212121212466,0.504858299595071)"><svg viewBox="0 0 396 247" data-background-color="#ffffff" preserveAspectRatio="xMidYMid meet" height="1247" width="2000" xmlns="http://www.w3.org/2000/svg" xmlns:xlink="http://www.w3.org/1999/xlink"><g id="tight-bounds" transform="matrix(1,0,0,1,0.2400000000000091,-0.09999999999999432)"><svg viewBox="0 0 395.52 247.2" height="247.2" width="395.52"><g><svg></svg></g><g><svg viewBox="0 0 395.52 247.2" height="247.2" width="395.52"><g transform="matrix(1,0,0,1,39.55199999999999,55.855299721398296)"><svg viewBox="0 0 316.416 135.4894005572034" height="135.4894005572034" width="316.416"><g><svg viewBox="0 0 541.0396312049791 231.673288675835" height="135.4894005572034" width="316.416"><g transform="matrix(1,0,0,1,224.62363120497906,32.01852253045189)"><svg viewBox="0 0 316.416 167.63624361493123" height="167.63624361493123" width="316.416"><g id="textblocktransform"><svg viewBox="0 0 316.416 167.63624361493123" height="167.63624361493123" width="316.416" id="textblock"><g><svg viewBox="0 0 316.416 167.63624361493123" height="167.63624361493123" width="316.416"><g transform="matrix(1,0,0,1,0,0)"><svg width="316.416" viewBox="-0.59 -37.84 74.56 39.5" height="167.63624361493123" data-palette-color="#ed1703"><path d="M15.23 1.37L15.23 1.37Q12.52 1.37 10.29 1.01 8.06 0.66 5.99-0.23 3.93-1.12 2.51-2.54 1.1-3.96 0.26-6.23-0.59-8.5-0.59-11.47L-0.59-11.47Q-0.59-12.79 0.2-12.79L0.2-12.79 11.33-12.79Q12.08-12.79 12.45-12.43 12.82-12.06 12.89-11.52 12.96-10.99 13.02-10.45 13.09-9.91 13.39-9.55 13.7-9.18 14.36-9.18L14.36-9.18Q14.97-9.18 15.34-9.51 15.72-9.84 15.88-10.5 16.04-11.16 16.08-11.65 16.11-12.13 16.11-12.89L16.11-12.89 16.11-13.09Q16.09-14.84 15.98-19.87 15.87-24.9 15.87-27.73L15.87-27.73 15.87-36.04Q15.87-36.74 16.89-36.87L16.89-36.87Q17.68-36.87 19.24-36.84 20.8-36.82 21.58-36.82L21.58-36.82Q22.75-36.82 25.05-36.84 27.34-36.87 28.52-36.87L28.52-36.87 30.81-36.87Q31.37-36.87 31.59-36.18L31.59-36.18Q31.54-35.74 31.56-34.99 31.57-34.23 31.54-33.79L31.54-33.79 31.54-32.57Q31.3-25.07 31.3-19.19L31.3-19.19 31.3-11.52Q31.3-9.38 30.71-7.54 30.13-5.71 29.15-4.42 28.17-3.13 26.82-2.09 25.46-1.05 24.02-0.42 22.58 0.22 20.98 0.63 19.38 1.05 17.98 1.21 16.58 1.37 15.23 1.37ZM34.71-18.26L34.71-18.26Q34.71-22.41 35.84-25.76 36.96-29.1 38.85-31.32 40.74-33.54 43.33-35.05 45.92-36.55 48.73-37.19 51.54-37.84 54.64-37.84L54.64-37.84Q58.88-37.84 62.36-36.4 65.84-34.96 68.12-32.46 70.41-29.96 71.65-26.56 72.9-23.17 72.9-19.24L72.9-19.24Q72.9-16.63 72.14-14.06 71.38-11.5 70.02-9.67L70.02-9.67Q70.33-9.67 70.97-9.69 71.6-9.72 71.92-9.72L71.92-9.72Q73.97-9.72 73.97-8.2L73.97-8.2 73.97 0.1Q73.95 0.49 73.72 0.71 73.48 0.93 73 1.07L73 1.07Q71.07 0.73 66.26 0.73L66.26 0.73Q63.74 0.73 59.46 1.2 55.17 1.66 53.07 1.66L53.07 1.66Q43.21 1.66 38.52-5.96L38.52-5.96Q36.57-7.91 35.64-11.38 34.71-14.84 34.71-18.26ZM48.87-17.77L48.87-17.77Q48.87-16.75 48.89-16.09 48.9-15.43 48.98-14.28 49.07-13.13 49.24-12.35 49.41-11.57 49.74-10.64 50.07-9.72 50.55-9.16 51.02-8.59 51.76-8.2 52.49-7.81 53.42-7.81L53.42-7.81 53.42-8.4Q53.42-8.5 53.66-8.5L53.66-8.5Q53.78-8.5 54.07-8.45 54.37-8.4 54.49-8.4L54.49-8.4Q55.49-8.4 56.24-8.95 56.98-9.5 57.39-10.47 57.81-11.45 58.08-12.49 58.35-13.53 58.42-14.83 58.49-16.14 58.51-16.98 58.52-17.82 58.49-18.8L58.49-18.8 58.44-19.78Q58.44-20.87 58.4-21.74 58.35-22.61 58.2-23.69 58.05-24.78 57.72-25.57 57.39-26.37 56.92-27.08 56.44-27.78 55.65-28.15 54.86-28.52 53.85-28.52L53.85-28.52Q52.83-28.52 52-28.03 51.17-27.54 50.64-26.66 50.12-25.78 49.75-24.74 49.39-23.71 49.2-22.42 49.02-21.14 48.95-20.06 48.87-18.97 48.87-17.77Z" opacity="1" transform="matrix(1,0,0,1,0,0)" fill="#ffffff" class="wordmark-text-0" data-fill-palette-color="primary" id="text-0"></path></svg></g></svg></g></svg></g></svg></g><g><svg viewBox="0 0 185.04873735734057 231.673288675835" height="231.673288675835" width="185.04873735734057"><g><svg xmlns="http://www.w3.org/2000/svg" xmlns:xlink="http://www.w3.org/1999/xlink" version="1.1" x="0" y="0" viewBox="11.8 1.7 76.60000000000001 95.9" style="enable-background:new 0 0 100 100;" xml:space="preserve" height="231.673288675835" width="185.04873735734057" class="icon-icon-0" data-fill-palette-color="accent" id="icon-0"><path d="M88.3 29.1l-0.1-0.4c-0.2-0.6-0.5-1.1-0.9-1.5l-24-24.3c-0.3-0.3-0.6-0.5-1-0.7L61 1.8 23 1.7c-6.2 0-11.2 5-11.2 11.2v73.5c0 6.2 5 11.2 11.2 11.2h54.2c6.2 0 11.2-5 11.2-11.2V30.1L88.3 29.1zM63.4 14.6L76 27.3h-9.4c-1.7 0-3.1-1.4-3.1-3.1V14.6zM24.7 48.4V31.7c0-0.9 0.7-1.6 1.6-1.6h7.2v-3.3c0-0.6 0.5-1 1-1h9c0.6 0 1 0.5 1 1v3.3h7.2c0.8 0 1.5 0.7 1.5 1.6v16.6c0 0.9-0.7 1.6-1.6 1.6H26.3C25.4 49.9 24.7 49.2 24.7 48.4zM77.6 85H62.4v-3.7h15.2V85zM77.6 75.3H49.3v-3.7h28.3V75.3zM77.6 65.9H49.3v-3.7h28.3V65.9z" fill="#ffffff" data-fill-palette-color="accent"></path><rect x="35.5" y="27.9" width="7" height="2.3" fill="#ffffff" data-fill-palette-color="accent"></rect></svg></g></svg></g></svg></g></svg></g><g><path d="M0 247.2v-247.2h395.52v247.2zM386.679 238.359v-229.518h-377.838v229.518z" fill="#ffffff" fill-rule="nonzero" stroke="none" stroke-width="1" stroke-linecap="butt" stroke-linejoin="miter" stroke-miterlimit="10" stroke-dasharray="" stroke-dashoffset="0" font-family="none" font-weight="none" font-size="none" text-anchor="none" style="mix-blend-mode: normal" data-fill-palette-color="tertiary"></path></g></svg></g><defs></defs></svg><rect width="395.52" height="247.2" fill="none" stroke="none" visibility="hidden"></rect></g></svg></g></svg>